<svg xmlns="http://www.w3.org/2000/svg" viewBox="0 0 960 520" role="img" aria-labelledby="title desc">
  <title id="title">Abstract digital art preview</title>
  <desc id="desc">Layered blue and teal forms with fine connecting lines.</desc>
  <defs>
    <linearGradient id="bg" x1="0" y1="0" x2="1" y2="1">
      <stop offset="0" stop-color="#eff6ff"/>
      <stop offset="0.52" stop-color="#dbeafe"/>
      <stop offset="1" stop-color="#ccfbf1"/>
    </linearGradient>
    <linearGradient id="stroke" x1="0" y1="0" x2="1" y2="0">
      <stop offset="0" stop-color="#2563eb"/>
      <stop offset="1" stop-color="#0f766e"/>
    </linearGradient>
    <filter id="soft" x="-20%" y="-20%" width="140%" height="140%">
      <feGaussianBlur stdDeviation="18"/>
    </filter>
  </defs>
  <rect width="960" height="520" fill="url(#bg)"/>
  <circle cx="210" cy="190" r="120" fill="#60a5fa" opacity="0.22" filter="url(#soft)"/>
  <circle cx="710" cy="310" r="150" fill="#2dd4bf" opacity="0.22" filter="url(#soft)"/>
  <path d="M120 330C245 190 320 412 460 260S690 120 840 230" fill="none" stroke="url(#stroke)" stroke-width="10" stroke-linecap="round" opacity="0.85"/>
  <path d="M130 365C275 235 335 445 500 290S705 190 825 305" fill="none" stroke="#38bdf8" stroke-width="4" stroke-linecap="round" opacity="0.5"/>
  <g fill="#0f172a" opacity="0.58">
    <circle cx="120" cy="330" r="9"/>
    <circle cx="278" cy="266" r="7"/>
    <circle cx="460" cy="260" r="10"/>
    <circle cx="635" cy="158" r="7"/>
    <circle cx="840" cy="230" r="9"/>
  </g>
  <g stroke="#1d4ed8" stroke-width="1.5" opacity="0.3">
    <path d="M120 330 278 266 460 260 635 158 840 230"/>
    <path d="M278 266 500 290 825 305"/>
  </g>
</svg>
